<?xml version="1.0" standalone="no" ?>
<!DOCTYPE svg PUBLIC "-//W3C//DTD SVG 20010904//EN"
          "http://www.w3.org/TR/2001/REC-SVG-20010904/DTD/svg10.dtd">
<svg version="1.0" xmlns="http://www.w3.org/2000/svg"
     width="1182.000000pt" height="665.000000pt" viewBox="0 0 1182.000000 665.000000"
     preserveAspectRatio="xMidYMid meet">
    <metadata>
        Created by potrace 1.16, written by Peter Selinger 2001-2019
    </metadata>
    <g transform="translate(0.000000,665.000000) scale(0.100000,-0.100000)"
       fill="#000000" stroke="none">
        <path d="M0 3325 l0 -3325 1286 0 1285 0 -7 23 c-4 12 -17 42 -30 67 -34 66
-41 131 -19 180 l18 39 -50 55 c-52 57 -63 85 -63 165 0 31 -9 60 -26 91 -51
87 -66 193 -42 284 11 40 10 50 -11 93 -12 26 -23 55 -25 63 -2 8 -5 26 -9 40
-3 14 -11 54 -18 90 -6 36 -22 104 -35 152 -13 48 -24 100 -24 115 0 30 -10
70 -54 218 -15 50 -36 142 -46 205 -11 63 -26 144 -34 180 -7 36 -19 106 -26
155 -7 50 -23 135 -36 190 -28 122 -52 247 -64 346 -5 41 -16 103 -25 139 -24
102 -53 251 -59 298 -3 24 -12 74 -20 110 -8 37 -18 93 -21 125 -4 31 -11 57
-16 57 -6 0 -9 27 -7 65 2 36 6 65 11 65 4 0 7 9 7 20 0 11 7 20 15 20 21 0
19 18 -2 23 -17 4 -17 5 -1 6 11 1 15 6 12 16 -11 28 11 15 36 -22 14 -20 31
-42 38 -49 7 -7 12 -15 12 -16 -1 -2 1 -10 4 -18 31 -91 55 -172 60 -205 13
-83 59 -256 76 -287 6 -10 10 -28 10 -40 0 -27 36 -204 56 -272 8 -26 14 -55
14 -63 0 -36 63 -292 95 -387 29 -85 36 -127 44 -238 6 -81 20 -172 35 -230
14 -53 30 -136 36 -185 6 -48 18 -126 26 -173 9 -46 20 -125 24 -175 5 -50 16
-117 25 -150 16 -60 20 -140 11 -184 -5 -24 14 -60 60 -110 48 -52 66 -107 71
-219 4 -76 11 -119 24 -148 26 -55 19 -123 -15 -169 -32 -42 -33 -59 -1 -73
28 -13 85 -118 85 -156 0 -14 -4 -35 -9 -48 -5 -13 -7 -36 -4 -51 l5 -27 1039
0 c571 0 1040 4 1043 8 3 5 8 28 12 52 5 31 4 41 -4 36 -7 -4 -12 -16 -12 -27
0 -10 -5 -19 -11 -19 -6 0 -8 9 -4 20 4 12 2 20 -5 20 -15 0 -2 46 31 109 16
30 29 60 29 67 0 6 7 17 15 24 12 10 13 16 4 26 -14 17 2 25 60 27 44 2 45 3
55 67 2 14 12 51 21 83 9 32 15 60 13 62 -1 1 -26 6 -54 10 l-52 7 -26 -56
c-14 -30 -26 -61 -26 -68 0 -16 -24 -85 -32 -94 -7 -6 20 99 44 176 8 25 15
49 16 53 0 5 12 17 26 28 22 17 26 18 26 5 0 -9 -4 -16 -10 -16 -5 0 -10 -4
-10 -8 0 -4 23 -8 52 -7 48 0 52 2 62 32 17 49 38 66 24 20 -8 -27 -8 -43 -1
-60 17 -34 23 -70 14 -81 -12 -17 -35 -125 -28 -133 4 -3 58 -1 120 5 61 7
122 12 135 12 12 0 22 5 22 10 0 6 6 10 13 10 26 0 48 37 59 99 7 34 17 61 24
61 10 0 24 42 24 76 0 17 -52 19 -80 4 -16 -8 -18 -7 -14 4 6 16 -7 21 -81 33
l-50 8 65 6 c36 4 97 7 135 8 57 1 66 4 50 13 -23 13 -242 20 -302 9 -46 -9
-80 2 -41 12 12 4 35 7 50 7 25 0 26 2 21 35 -4 23 -2 35 6 35 6 0 11 -8 11
-18 0 -33 17 -39 78 -30 31 5 68 11 82 12 14 1 37 6 53 10 17 5 32 4 41 -3 10
-9 21 -8 42 0 23 10 25 13 12 16 -10 3 -18 8 -18 13 0 19 29 25 123 25 76 0
94 -3 81 -12 -8 -6 -42 -14 -75 -18 -32 -4 -59 -11 -59 -16 0 -5 6 -9 13 -9
53 -1 154 -14 164 -22 16 -13 22 1 21 50 0 32 -4 42 -16 40 -8 -2 -17 3 -20
11 -3 10 0 12 12 8 10 -4 22 -7 27 -7 5 0 17 -18 25 -41 11 -26 20 -36 24 -28
6 9 17 7 46 -7 30 -14 40 -26 44 -49 5 -30 15 -45 54 -85 15 -15 22 -17 37 -7
15 9 22 9 27 1 9 -14 52 0 52 17 0 6 10 21 21 34 12 12 23 34 25 50 4 38 18
49 57 48 29 -1 35 3 43 29 14 47 29 38 34 -22 3 -38 7 -49 13 -37 4 11 5 23 2
28 -4 5 0 7 7 4 7 -2 59 -6 116 -9 82 -3 107 -8 124 -22 21 -19 21 -19 9 4 -6
12 -8 23 -4 23 4 1 -44 7 -107 13 -63 6 -115 16 -115 21 0 12 155 23 190 13
13 -3 35 -18 47 -32 21 -23 32 -26 118 -31 52 -3 107 -8 122 -11 23 -5 28 -1
34 20 7 29 26 36 23 9 -3 -37 1 -43 34 -43 28 1 30 2 13 11 -15 9 -16 13 -5
20 10 6 11 9 2 9 -7 0 -13 4 -13 10 0 5 7 7 15 4 17 -7 21 11 5 21 -5 3 -10
17 -10 31 0 34 -16 30 -29 -8 -15 -41 -21 -33 -12 17 5 25 12 39 20 37 7 -1
19 2 27 9 7 6 17 8 23 5 5 -3 12 1 15 10 9 24 7 28 -9 14 -12 -10 -15 -9 -15
5 0 14 5 16 28 10 15 -3 50 -10 77 -14 28 -5 42 -9 33 -10 -20 -1 -22 -9 -8
-31 8 -13 10 -12 15 1 4 11 14 14 31 11 19 -3 23 -1 18 12 -10 25 10 19 40
-13 27 -28 28 -30 6 -24 -16 4 -21 3 -16 -5 4 -7 3 -12 -2 -12 -6 0 -13 -11
-16 -25 -6 -24 -9 -25 -81 -23 l-74 2 -3 36 c-3 25 -6 15 -12 -37 -5 -42 -13
-73 -20 -73 -6 0 -5 -4 3 -9 8 -5 11 -16 7 -26 -5 -14 -9 -15 -22 -4 -19 16
-228 25 -264 11 -21 -8 -11 -11 55 -16 100 -9 145 -25 65 -24 -71 1 -128 -11
-109 -23 11 -7 10 -9 -3 -9 -10 0 -18 -4 -18 -10 0 -5 -7 -10 -15 -10 -8 0
-15 -4 -15 -10 0 -5 4 -10 9 -10 10 0 23 -35 25 -70 1 -18 7 -26 23 -28 18 -3
20 -6 10 -16 -10 -11 -14 -10 -24 3 -10 14 -15 14 -33 3 -25 -15 -42 -6 -20 9
12 9 13 10 1 7 -8 -2 -19 -12 -25 -22 -9 -13 -7 -19 7 -27 9 -6 15 -14 12 -20
-4 -5 3 -9 14 -9 12 0 21 -7 21 -16 0 -8 4 -12 10 -9 6 3 7 -1 4 -9 -3 -9 -1
-16 5 -16 6 0 11 5 11 10 0 14 27 13 32 -1 3 -8 55 -14 147 -18 136 -6 177 -2
152 13 -6 4 -11 21 -11 37 0 17 -5 40 -11 52 -7 11 -13 37 -13 56 -6 127 -4
118 -37 130 -18 6 -44 11 -58 12 -22 1 -21 2 8 9 19 5 45 4 58 -1 35 -13 43
-11 44 9 0 15 26 -52 33 -88 2 -8 8 -15 14 -14 7 1 30 2 53 2 l41 2 -32 56
c-40 71 -34 92 7 25 18 -28 47 -60 65 -71 21 -13 27 -20 16 -20 -16 0 -16 -4
-3 -47 16 -52 12 -73 -5 -27 -6 16 -13 36 -17 44 -3 8 -6 18 -5 21 0 3 -26 1
-59 -4 -34 -6 -59 -15 -59 -22 0 -6 9 -38 20 -70 11 -32 20 -68 20 -79 0 -40
16 -48 104 -55 4 -1 6 -10 3 -21 -3 -11 -1 -20 5 -20 5 0 7 -9 3 -19 -3 -12 4
-39 19 -68 28 -53 34 -39 12 25 -21 58 -3 62 29 7 15 -25 33 -48 39 -53 12 -6
49 -72 41 -72 -2 0 -10 -3 -18 -6 -10 -4 -21 4 -32 23 l-16 28 4 -28 c5 -33
-9 -36 -17 -3 -3 13 -15 26 -26 29 -27 7 -25 -6 5 -39 21 -23 25 -36 23 -78
l-3 -51 2323 -3 2322 -2 0 3325 0 3325 -5910 0 -5910 0 0 -3325z m7851 3274
c81 -28 113 -84 107 -188 -4 -65 -2 -79 15 -96 42 -44 68 -86 140 -230 41 -82
104 -208 140 -280 160 -318 216 -433 227 -470 7 -22 25 -61 41 -88 16 -26 29
-49 29 -51 0 -2 17 -33 38 -67 21 -35 56 -102 77 -149 22 -47 53 -107 69 -135
15 -27 71 -131 124 -230 52 -99 112 -206 133 -238 22 -32 39 -62 39 -67 0 -15
49 -99 127 -220 42 -63 100 -163 131 -223 37 -74 76 -131 117 -176 87 -95 100
-117 135 -222 37 -113 188 -419 207 -419 7 0 13 -6 13 -14 0 -7 10 -24 23 -37
12 -14 31 -45 42 -69 11 -25 23 -47 27 -50 11 -8 60 -142 54 -148 -3 -2 -1
-13 5 -24 5 -10 12 -32 14 -48 8 -62 49 -159 75 -177 9 -7 23 -26 30 -43 7
-16 16 -30 21 -30 5 0 18 -20 29 -44 11 -25 24 -48 30 -51 5 -3 10 -15 10 -26
0 -10 3 -19 8 -19 4 0 14 -15 21 -33 8 -17 22 -37 30 -44 9 -7 12 -13 6 -13
-5 0 -5 -4 2 -8 7 -4 14 -30 16 -57 3 -28 10 -63 16 -78 14 -36 8 -46 -24 -39
-28 5 -105 77 -105 98 0 7 -16 29 -35 48 -19 20 -35 38 -35 41 0 3 -11 18 -24
32 -13 14 -22 32 -19 40 4 9 0 11 -11 7 -9 -3 -16 -1 -16 5 0 23 -2 26 -21 33
-10 4 -19 17 -19 28 0 11 -7 20 -15 20 -8 0 -15 5 -15 10 0 6 -13 24 -30 40
-16 16 -30 34 -30 39 0 5 -31 42 -70 82 -38 39 -70 74 -70 78 0 3 -13 12 -29
19 -16 7 -31 22 -34 33 -3 11 -9 18 -14 17 -17 -5 -78 69 -95 117 -46 133 -66
177 -86 191 -12 8 -22 22 -22 31 0 9 -6 13 -15 9 -8 -3 -15 -2 -15 3 0 4 -27
39 -61 77 -64 72 -174 255 -174 289 0 11 -6 34 -12 50 -6 17 -14 50 -18 74 -3
24 -19 64 -35 88 -17 24 -30 48 -30 53 0 4 -13 38 -30 75 -16 37 -30 75 -30
86 0 10 -4 19 -10 19 -5 0 -10 7 -10 16 0 8 -22 57 -50 108 -27 52 -59 129
-70 172 -56 206 -74 254 -132 340 -34 49 -71 121 -157 304 -22 47 -86 173
-142 280 -92 175 -183 352 -322 627 -26 50 -47 94 -47 97 0 4 -26 62 -58 129
-53 111 -108 227 -135 284 -5 12 -7 37 -3 55 6 33 3 36 -58 81 -69 51 -96 93
-104 165 -4 37 -1 47 24 73 25 26 65 45 100 48 6 1 26 -4 45 -10z m-1123 -55
c74 -38 67 -167 -13 -220 -17 -11 -29 -13 -38 -7 -6 6 -29 13 -51 16 -45 7
-74 30 -92 74 -19 45 -17 70 7 105 40 56 116 69 187 32z m-1232 -19 c12 -4 27
-18 33 -31 13 -30 15 -74 2 -74 -5 0 -12 -11 -15 -24 -13 -52 -113 -70 -172
-31 -46 30 -18 142 41 162 29 9 80 8 111 -2z m1294 -336 c24 -80 56 -234 109
-524 77 -423 100 -561 106 -630 12 -131 36 -340 45 -380 4 -22 11 -71 15 -110
8 -81 37 -211 55 -246 7 -13 32 -56 56 -95 24 -39 44 -76 44 -82 0 -7 4 -12 9
-12 10 0 44 -97 57 -160 7 -33 12 -232 18 -675 1 -110 5 -231 9 -269 4 -43 3
-74 -3 -81 -7 -8 -7 -21 -1 -38 7 -19 6 -28 -4 -37 -8 -7 -12 -17 -9 -22 4 -6
0 -14 -7 -19 -24 -15 -20 -22 -70 101 -12 30 -37 87 -56 127 -18 40 -33 83
-33 95 0 13 -29 81 -64 151 -36 71 -79 169 -96 220 -18 51 -38 104 -45 118
-17 32 -45 57 -45 40 0 -7 -4 -10 -9 -7 -14 9 -30 -101 -36 -254 -10 -284 -16
-386 -25 -460 -17 -133 -23 -188 -29 -269 -1 -17 -58 96 -102 204 -18 44 -35
82 -38 85 -3 3 -7 12 -8 20 0 8 -29 92 -63 185 -66 177 -69 201 -45 282 40
129 56 274 61 538 1 83 5 173 8 200 10 100 18 151 28 190 6 22 11 45 13 50 3
14 19 51 51 120 29 63 31 69 39 124 3 18 7 36 10 41 2 4 7 39 10 78 5 52 3 80
-8 100 -13 27 -12 32 25 93 71 117 83 176 83 399 0 185 -1 198 -24 243 -13 26
-39 60 -59 75 -61 45 -96 87 -108 125 -6 21 -10 37 -8 37 2 0 15 -17 29 -37
14 -21 25 -33 25 -27 0 5 -5 15 -10 20 -15 15 -70 288 -70 346 0 67 13 93 61
121 l43 26 23 -27 c13 -15 32 -57 43 -93z m-752 -218 c-2 -249 -3 -278 -8
-156 -4 101 -7 129 -10 85 l-4 -65 -6 70 c-4 39 -7 62 -8 53 -1 -10 -10 -18
-19 -18 -31 0 -111 -81 -118 -120 -4 -19 -14 -47 -21 -62 -8 -16 -12 -28 -9
-28 4 0 3 -6 -2 -12 -4 -7 -8 -22 -9 -34 0 -12 -4 -28 -7 -37 -8 -21 -165
-100 -187 -94 -11 3 -21 -7 -32 -32 -21 -48 -64 -90 -91 -89 -12 0 -47 8 -77
16 -79 22 -193 21 -259 -2 -52 -18 -141 -91 -141 -116 0 -5 18 10 41 35 101
109 305 114 469 11 l54 -34 44 38 c47 42 108 75 157 85 17 3 5 -4 -26 -18 -60
-25 -108 -55 -150 -94 l-26 -24 -54 28 c-48 25 -62 28 -124 24 -38 -3 -61 -6
-50 -8 12 -2 26 -17 32 -33 l11 -30 -92 0 c-158 0 -245 -35 -282 -115 -13 -28
-13 -26 -11 43 1 39 -2 72 -7 72 -14 0 1 165 18 197 44 84 158 146 281 151 67
3 94 -1 160 -23 44 -14 99 -37 122 -51 l41 -24 81 37 c60 26 83 42 87 59 3 12
0 82 -6 156 -16 172 -19 285 -10 376 8 77 15 95 30 72 6 -9 10 -10 10 -3 0 16
31 21 128 20 l82 -1 -2 -305z m-339 147 c2 -119 9 -140 40 -121 16 10 20 9 25
-4 8 -20 -11 -43 -30 -36 -8 3 -14 -1 -15 -8 -6 -69 -7 -84 -9 -86 -4 -5 -7
-40 -9 -87 -1 -39 -5 -46 -31 -60 -18 -9 -44 -13 -63 -9 -23 3 -37 0 -46 -11
-18 -21 -32 -21 -24 1 5 12 1 11 -15 -5 -12 -12 -28 -19 -37 -16 -9 4 -15 1
-15 -7 0 -10 -3 -10 -8 -3 -9 14 -52 28 -52 17 0 -4 -25 -6 -55 -5 -30 2 -75
-1 -101 -6 -38 -8 -50 -7 -62 4 -12 12 -12 17 0 31 12 15 10 15 -13 -1 -16
-10 -29 -30 -33 -48 -6 -29 -7 -30 -20 -13 -7 10 -18 15 -24 11 -7 -4 -12 -2
-12 4 0 6 13 19 30 28 17 10 32 28 35 43 4 16 15 30 28 34 19 6 19 8 5 12 -34
9 -18 28 19 24 6 -1 37 26 69 59 59 60 98 77 110 46 3 -8 11 -13 18 -10 15 6
41 -22 55 -59 9 -22 8 -29 -4 -33 -23 -9 -18 -19 18 -32 55 -20 62 -15 33 22
-30 40 -32 48 -11 40 11 -5 14 0 13 15 -3 20 2 22 75 27 l77 5 0 -47 c0 -44
-1 -46 -17 -32 -21 18 -76 30 -98 22 -30 -12 5 -34 52 -34 24 0 53 -4 63 -10
17 -9 19 -5 19 80 l0 90 -29 0 c-42 0 -132 -21 -153 -35 -14 -10 -26 -10 -50
-2 -18 5 -39 12 -47 14 -8 2 -10 7 -5 11 6 4 20 18 32 32 l22 25 -27 2 c-32 2
-52 -13 -52 -38 0 -12 -5 -16 -15 -13 -23 9 -18 28 15 52 17 13 30 29 30 37 0
13 67 75 82 75 5 0 8 -7 8 -15 0 -9 -6 -12 -15 -9 -11 5 -15 -1 -15 -21 0 -26
1 -27 18 -13 9 9 23 13 30 11 7 -3 10 1 7 9 -2 7 8 22 23 33 15 10 22 13 16 5
-6 -8 -14 -27 -18 -42 -3 -16 -13 -28 -21 -28 -21 0 -19 -14 5 -35 24 -21 47
-14 52 16 2 13 17 31 37 43 31 18 34 18 43 3 13 -25 28 -21 28 7 0 27 -15 42
-25 26 -10 -16 -25 -12 -19 5 5 12 -2 15 -32 16 -34 0 -36 2 -16 9 12 5 40 7
62 4 38 -6 40 -5 40 21 0 24 -3 27 -27 22 -16 -3 -39 -9 -52 -13 -16 -5 -22
-4 -18 4 4 5 26 13 48 17 29 5 43 13 46 26 3 10 7 19 8 19 2 0 4 -51 4 -112z
m469 23 c17 -6 21 -10 10 -10 -20 -1 -23 -18 -8 -55 7 -19 6 -27 -5 -33 -12
-7 -12 -15 -2 -51 l13 -43 24 26 c25 26 42 27 20 0 -11 -13 -10 -14 4 -9 9 3
16 12 16 20 0 19 10 18 34 -6 12 -10 38 -26 57 -34 34 -14 38 -14 54 4 10 11
14 20 8 20 -5 0 -23 11 -39 25 -30 26 -27 33 8 14 27 -15 35 -3 13 21 -36 40
6 32 60 -11 11 -9 28 -16 37 -16 15 0 15 3 2 29 -8 15 -19 28 -24 28 -6 0 -10
5 -10 12 0 7 18 -6 40 -27 45 -44 49 -55 20 -55 -12 0 -32 -8 -46 -17 -24 -15
-25 -18 -9 -29 16 -12 15 -16 -14 -49 l-31 -36 28 -24 c18 -15 36 -22 49 -19
11 3 26 -1 34 -9 8 -7 27 -16 43 -19 27 -5 28 -4 24 28 -2 19 1 36 7 38 14 5
-59 36 -86 36 -19 0 -20 -2 -8 -17 7 -10 1 -7 -13 6 -22 19 -25 26 -16 41 11
17 14 17 45 -7 31 -24 35 -25 52 -9 23 21 34 20 56 -4 10 -11 13 -20 7 -20 -6
0 -14 5 -17 10 -3 6 -13 10 -22 10 -13 0 -13 -3 -2 -16 7 -9 12 -36 10 -65 -1
-29 2 -49 9 -49 5 0 10 4 10 9 0 5 9 7 21 4 13 -4 16 -8 9 -13 -6 -4 5 -14 27
-24 21 -9 61 -37 88 -62 41 -37 45 -45 25 -39 -21 5 -22 4 -7 -5 9 -6 17 -15
17 -20 0 -5 -28 4 -62 20 -35 16 -85 35 -113 42 -27 6 -58 18 -67 26 -10 8
-25 12 -34 8 -11 -4 -22 1 -31 14 -11 16 -25 20 -68 20 -29 0 -65 -4 -79 -10
-21 -7 -26 -6 -26 5 0 8 9 15 19 15 11 0 23 5 26 10 3 6 15 10 26 10 23 0 25
15 3 24 -13 5 -14 9 -4 21 25 30 -4 14 -34 -19 -17 -18 -52 -41 -79 -51 -26
-9 -54 -24 -62 -32 -13 -12 -20 -13 -45 -1 -17 7 -30 16 -30 20 0 13 17 9 30
-7 14 -17 35 -21 25 -5 -3 6 3 10 14 10 11 0 44 27 80 66 33 36 64 63 69 60 6
-3 12 6 15 19 4 24 3 25 -14 9 -10 -9 -22 -13 -28 -10 -5 3 -11 1 -13 -6 -3
-7 -14 -9 -32 -4 -22 5 -25 10 -17 20 9 10 8 15 -3 19 -10 4 -13 1 -10 -7 7
-18 -8 -27 -26 -15 -13 8 -13 10 0 19 10 6 11 10 3 10 -7 0 -12 6 -10 13 3 18
-24 14 -37 -6 -8 -14 -8 -20 4 -27 13 -8 12 -10 -3 -10 -10 0 -22 10 -27 23
-7 18 -9 12 -9 -27 -1 -27 -4 -47 -7 -43 -4 3 -6 74 -6 157 1 89 -3 150 -8
150 -6 0 -10 5 -10 11 0 5 5 7 10 4 6 -4 11 8 12 27 l1 33 4 -37 c3 -29 10
-39 31 -47z m447 -475 c64 -17 132 -51 167 -84 32 -30 44 -63 53 -152 l6 -65
-28 27 c-15 15 -55 39 -88 55 -55 26 -70 28 -175 28 -112 0 -140 7 -140 34 0
6 -4 11 -10 11 -5 0 -10 9 -10 20 0 11 6 20 13 20 9 0 12 11 9 34 -3 30 0 35
25 44 24 9 25 11 6 11 -41 2 -146 -38 -185 -69 -22 -18 -42 -29 -45 -26 -16
15 110 84 197 107 79 22 139 23 205 5z m97 -226 c35 -13 69 -34 87 -56 27 -30
31 -43 31 -90 0 -35 -4 -53 -10 -49 -6 4 -7 11 -4 17 4 6 2 8 -3 5 -13 -8 -36
17 -25 28 4 5 2 5 -5 1 -6 -3 -14 -2 -18 4 -7 12 -81 51 -92 49 -22 -4 -32 3
-30 22 1 18 3 18 13 5 6 -9 14 -16 18 -16 4 0 -3 12 -15 28 -22 26 -26 27
-106 23 -56 -2 -83 1 -83 8 0 20 -38 11 -106 -25 -71 -38 -71 -21 0 21 99 58
235 68 348 25z m-5048 -97 c-4 -27 -11 -49 -15 -51 -5 -2 -9 -9 -9 -16 0 -17
-57 -89 -93 -116 -35 -28 -97 -43 -114 -28 -18 14 -7 52 36 123 52 88 110 134
169 135 l33 0 -7 -47z m4387 -282 c25 -15 67 -57 94 -92 27 -36 46 -54 42 -41
-3 12 -1 22 5 22 6 0 8 -13 6 -30 -6 -37 -1 -38 13 -4 9 25 11 26 28 10 9 -9
23 -16 30 -16 22 0 7 -35 -17 -38 -27 -4 -28 -18 -2 -32 11 -6 20 -18 20 -26
0 -25 -33 -75 -47 -70 -8 3 -10 -1 -6 -11 5 -12 2 -15 -9 -10 -10 3 -25 -4
-37 -17 -20 -21 -21 -25 -7 -39 9 -9 16 -18 16 -21 0 -8 -92 -49 -120 -54 -29
-4 -102 27 -97 42 2 6 32 11 70 11 37 1 67 5 67 10 0 6 -39 15 -87 21 -86 11
-78 17 21 17 l50 0 -24 19 c-19 15 -35 19 -67 15 -24 -2 -43 -1 -43 4 0 5 24
9 54 9 l54 0 -14 29 c-17 35 -42 45 -75 33 -13 -5 -46 -12 -74 -15 l-50 -6 55
15 c30 7 78 18 105 22 39 7 45 11 30 16 -11 5 -35 15 -52 24 -34 17 -62 13
-139 -18 -26 -11 -34 -10 -59 6 -25 16 -27 19 -10 23 11 2 21 -2 23 -8 5 -15
22 -14 22 1 0 7 -12 22 -27 34 l-26 21 56 26 c69 33 77 33 77 3 0 -51 61 -52
74 -2 8 31 29 33 74 6 35 -21 40 -44 17 -70 -16 -18 -11 -50 9 -50 6 0 21 6
32 14 19 14 21 13 18 -12 -5 -48 -17 -87 -28 -94 -6 -4 -7 -10 -4 -14 7 -7 68
49 68 62 0 4 7 16 17 26 11 12 12 18 3 18 -8 0 -11 9 -7 27 3 15 -2 41 -10 58
-24 46 -83 116 -94 109 -5 -3 -8 0 -7 7 2 7 -15 23 -37 35 -22 13 -35 24 -29
24 5 0 30 -13 55 -29z m-912 -167 c2 -2 10 1 16 6 14 11 43 -15 31 -27 -4 -4
-12 -1 -17 7 -12 16 -11 11 17 -93 9 -33 12 -66 8 -75 -4 -9 -8 -118 -9 -242
-1 -187 -5 -242 -22 -325 -12 -55 -24 -118 -27 -140 -12 -77 -48 -235 -78
-349 -15 -54 -37 -102 -71 -153 -52 -80 -55 -99 -29 -195 10 -38 6 -63 -33
-223 -63 -254 -91 -318 -166 -383 -72 -63 -143 -34 -193 81 -22 49 -42 122
-39 138 1 3 4 24 7 47 3 22 10 51 17 64 7 13 12 25 12 28 -1 6 2 14 16 59 6
19 11 46 11 60 0 26 6 40 50 116 68 119 70 133 36 220 -29 75 -14 347 28 501
40 148 74 257 96 308 12 26 35 87 51 134 37 109 56 149 79 172 22 22 50 99 50
136 0 47 49 122 90 137 14 5 60 -1 69 -9z m3101 -434 c6 -11 19 -20 29 -20 36
0 59 -87 52 -197 -2 -21 -17 -15 -29 12 -17 37 -29 31 -42 -25 -7 -27 -16 -48
-20 -45 -25 16 -48 214 -32 278 6 23 29 22 42 -3z m-2854 -195 c2 -11 20 -73
41 -137 30 -92 40 -114 50 -106 10 8 12 7 7 -6 -3 -9 -1 -16 5 -16 7 0 14 7
18 16 5 13 9 10 19 -12 l13 -29 -4 31 c-4 29 -2 32 20 30 14 0 27 -7 29 -13 4
-8 -3 -12 -17 -10 -18 2 -21 -2 -19 -20 3 -18 -2 -23 -17 -23 -12 0 -21 -6
-22 -12 0 -7 -4 -4 -9 7 -6 13 -9 15 -9 5 0 -8 3 -22 9 -30 7 -12 10 -12 16 4
7 18 8 18 16 -3 5 -13 4 -31 -3 -43 -8 -15 -7 -24 5 -37 8 -9 18 -36 22 -59 4
-23 10 -42 15 -42 5 0 9 -10 9 -22 0 -26 7 -37 34 -58 18 -14 19 -13 13 3 -5
13 -3 17 5 14 11 -3 14 -25 9 -60 0 -5 -5 -5 -11 -2 -5 3 -10 1 -10 -5 0 -6
11 -15 25 -20 14 -5 25 -16 24 -22 -1 -7 -1 -24 0 -38 1 -27 16 -18 24 15 3
11 5 3 6 -18 1 -23 7 -40 16 -43 10 -4 13 -15 10 -34 -3 -17 1 -32 10 -40 8
-7 15 -18 15 -25 0 -7 16 -16 35 -19 19 -4 35 -11 35 -17 0 -6 4 -8 9 -4 5 3
12 1 16 -5 10 -16 -27 -11 -47 7 -10 9 -21 14 -24 10 -10 -9 16 -48 38 -56 17
-6 18 -9 5 -19 -12 -10 -21 -2 -54 50 -92 145 -134 218 -171 298 -21 47 -44
96 -50 110 l-12 25 6 -25 c15 -57 85 -228 102 -246 19 -21 102 -161 102 -173
0 -4 14 -23 30 -41 17 -18 55 -71 86 -117 31 -45 60 -80 65 -78 4 3 11 0 15
-6 4 -8 3 -9 -4 -5 -19 11 -14 1 29 -68 46 -74 65 -90 25 -22 -14 25 -26 49
-26 55 0 19 20 12 20 -6 1 -16 2 -16 15 1 19 26 19 37 -1 29 -10 -4 -17 1 -21
16 -3 11 -13 22 -22 22 -9 1 -23 2 -31 3 -8 0 -19 10 -25 21 -5 11 -20 35 -32
52 -28 38 -28 38 2 39 21 2 23 -1 15 -16 -14 -27 -12 -34 6 -19 11 9 14 25 11
61 -5 53 -11 66 -22 49 -3 -6 -1 -11 6 -11 8 0 8 -4 -2 -16 -10 -13 -10 -17 2
-25 8 -5 10 -9 4 -10 -5 0 -20 -2 -31 -3 -12 -1 -27 6 -33 16 -10 17 -9 18 15
12 24 -6 26 -5 23 27 -3 47 2 97 8 82 6 -15 43 -18 43 -3 0 5 -7 7 -15 4 -8
-4 -15 -2 -15 4 0 6 6 12 13 15 9 3 8 9 -4 23 -8 10 -14 28 -11 38 3 15 6 16
14 5 8 -12 10 -12 15 0 5 11 7 11 14 0 7 -11 9 -10 9 3 0 9 -4 19 -8 22 -5 3
-7 32 -6 66 1 33 -2 63 -7 66 -14 9 3 35 20 29 26 -8 24 65 -3 88 -12 10 -22
23 -22 28 -1 5 -2 15 -3 22 -1 7 -6 5 -12 -6 -6 -9 -7 -26 -4 -37 4 -11 2 -20
-4 -20 -10 0 -15 14 -12 33 0 4 -6 7 -14 7 -8 0 -15 7 -15 16 0 13 3 14 14 5
24 -20 -3 67 -29 95 -13 14 -29 39 -36 57 -7 17 -21 41 -31 51 -10 11 -18 26
-18 33 0 7 -4 13 -8 13 -5 0 -15 12 -22 28 -7 16 -15 22 -17 14 -3 -7 -13 -17
-23 -22 -13 -7 -20 -6 -24 6 -4 12 -1 14 14 9 14 -5 20 -2 20 9 0 19 21 21 39
4 7 -7 -12 29 -43 80 -71 117 -99 172 -92 180 3 3 6 0 6 -7 0 -7 4 -10 9 -6 5
3 12 1 16 -4 3 -6 36 -26 73 -46 63 -34 166 -115 145 -115 -5 0 -15 6 -21 12
-7 7 -41 22 -75 33 -52 17 -68 28 -97 67 -57 77 -47 45 20 -66 l63 -105 51 -6
c126 -15 182 -28 216 -53 33 -24 34 -24 15 -3 l-20 23 55 -7 c57 -7 136 -52
238 -136 40 -34 46 -43 48 -81 1 -24 10 -59 21 -78 26 -47 35 -72 23 -65 -6 3
-10 11 -10 16 0 17 -63 104 -67 92 -6 -17 24 -83 38 -83 7 0 10 -3 6 -6 -9
-10 54 -105 65 -97 7 3 8 1 4 -6 -4 -6 -2 -18 4 -26 7 -8 10 -20 8 -27 -3 -7
-19 13 -37 45 -19 32 -37 54 -43 50 -7 -3 -8 -1 -4 5 9 15 -82 137 -174 232
-40 41 -64 64 -54 50 10 -14 46 -54 80 -90 34 -36 71 -84 83 -107 12 -24 25
-43 30 -43 5 0 14 -14 20 -31 6 -16 23 -49 39 -72 46 -69 49 -74 29 -58 -15
12 -17 11 -17 -8 0 -11 5 -21 12 -21 6 0 8 -3 5 -7 -4 -3 1 -12 11 -20 14 -13
15 -14 1 -10 -14 5 -12 -9 12 -84 16 -49 29 -102 29 -119 0 -18 17 -56 43 -97
80 -124 90 -156 16 -50 -64 93 -189 257 -195 257 -3 0 15 -26 39 -57 44 -59
118 -163 149 -212 17 -26 17 -27 -1 -27 -11 0 -17 5 -14 14 3 7 2 12 -3 11
-19 -3 -28 2 -17 9 8 5 3 12 -17 19 -36 13 -36 13 -10 -17 11 -13 20 -34 20
-48 0 -17 4 -23 15 -18 8 3 15 1 15 -4 0 -6 -5 -10 -11 -10 -8 0 -10 -12 -6
-35 5 -31 4 -33 -12 -23 -10 6 -16 19 -14 28 3 10 0 21 -6 24 -7 5 -11 -2 -11
-18 0 -14 4 -28 10 -31 9 -6 4 -91 -7 -109 -4 -5 1 -7 10 -3 9 3 16 3 15 -1
-1 -4 5 -20 12 -35 12 -24 12 -30 0 -37 -8 -5 -11 -12 -8 -15 4 -4 12 2 19 13
13 20 13 20 24 -1 6 -12 17 -22 25 -23 29 -2 31 -4 21 -22 -7 -13 -7 -22 0
-29 6 -6 5 -10 -3 -11 -7 0 -24 -4 -37 -8 -23 -7 -24 -6 -17 35 6 39 5 41 -13
29 -15 -9 -17 -15 -9 -25 7 -8 7 -13 0 -13 -5 0 -12 -9 -15 -19 -3 -14 -15
-21 -38 -23 -24 -2 -33 -7 -30 -18 2 -8 5 -22 6 -30 7 -36 18 -60 28 -60 7 0
7 -4 -1 -12 -17 -17 -15 -28 6 -21 13 5 15 3 5 -7 -13 -14 -2 -46 23 -65 21
-15 7 -54 -17 -48 -10 3 -19 13 -20 22 0 10 -2 11 -6 4 -2 -7 -10 -13 -17 -13
-16 0 -9 51 8 62 7 5 7 8 -2 8 -7 0 -10 5 -7 10 10 16 -3 42 -16 34 -8 -4 -7
-9 2 -15 8 -5 9 -9 3 -9 -6 0 -11 -15 -11 -32 -1 -54 -8 -73 -31 -73 -11 0
-23 -3 -27 -7 -4 -3 -14 1 -24 10 -10 9 -36 34 -58 54 -23 21 -44 47 -48 58
-3 11 -12 20 -20 20 -7 0 -15 7 -19 15 -3 8 -12 15 -20 15 -9 0 -13 6 -10 13
2 7 -7 29 -21 48 -14 18 -35 54 -47 79 -11 25 -37 70 -56 100 -20 30 -56 87
-81 127 -25 39 -73 117 -106 173 -33 56 -68 111 -78 123 l-18 22 11 -22 c8
-17 8 -29 -1 -45 -11 -21 -11 -22 4 -9 15 11 17 11 17 -2 0 -9 -7 -22 -15 -31
-23 -22 -19 -43 4 -22 14 13 21 14 27 5 4 -7 3 -10 -4 -5 -6 3 -15 -1 -20 -9
-5 -11 -18 -15 -38 -12 -16 2 -34 -2 -41 -8 -13 -14 -6 -58 8 -49 14 8 10 -6
-5 -22 -8 -8 -20 -14 -27 -14 -8 0 -8 -4 1 -15 17 -21 7 -29 -19 -15 -14 7
-21 7 -21 0 0 -5 6 -10 13 -10 9 0 8 -3 -2 -9 -7 -5 -10 -14 -7 -20 4 -6 1
-11 -8 -11 -8 0 -17 -4 -21 -9 -3 -6 14 -8 43 -5 44 4 48 2 49 -18 2 -16 0
-19 -6 -9 -6 9 -11 10 -15 2 -4 -6 -12 -11 -18 -11 -6 0 -5 7 3 17 13 15 12
15 -8 5 -13 -8 -20 -19 -18 -31 2 -11 -7 -26 -25 -40 -32 -23 -45 -27 -34 -9
4 7 3 8 -5 4 -15 -10 -3 -29 15 -22 17 6 18 -6 3 -21 -6 -6 -8 -17 -4 -23 6
-9 13 -6 26 11 l19 24 0 -22 c0 -13 -3 -23 -7 -23 -11 0 -33 -50 -33 -74 0
-14 -3 -17 -11 -9 -8 8 -8 17 1 32 9 17 8 22 -5 27 -9 4 -19 4 -22 0 -4 -3 -1
-6 5 -6 8 0 9 -7 2 -26 -6 -14 -10 -33 -10 -42 0 -14 2 -15 10 -2 15 23 23
-11 12 -51 -6 -23 -4 -50 4 -81 7 -27 10 -48 7 -48 -3 0 0 -7 7 -15 6 -8 10
-18 7 -22 -3 -4 0 -19 6 -33 5 -14 10 -34 11 -45 1 -15 7 -20 26 -18 14 1 72
5 130 9 61 4 113 13 125 20 11 8 36 14 57 14 30 0 36 -3 31 -16 -3 -10 -8 -12
-12 -5 -10 15 -75 -17 -87 -42 -10 -22 -3 -22 -215 -30 -58 -3 -116 -10 -128
-16 -12 -7 -31 -9 -43 -5 -11 3 -19 2 -16 -2 2 -5 10 -21 18 -36 16 -33 12
-39 -18 -31 -15 3 -22 13 -22 29 0 38 -25 43 -154 28 -66 -8 -121 -12 -124
-10 -2 3 37 17 86 32 97 29 115 46 35 33 -26 -4 -59 -8 -72 -8 -22 -1 -23 0
-8 17 12 13 31 17 83 16 42 -1 69 -5 72 -12 5 -15 101 -16 137 -2 20 8 25 15
20 28 -3 9 -20 69 -36 132 -16 63 -35 131 -43 150 -8 19 -22 73 -31 120 -10
47 -23 94 -29 105 -15 26 -14 338 1 380 9 24 11 5 12 -102 1 -73 5 -133 10
-133 12 0 18 75 11 127 -4 23 -3 48 1 55 7 10 9 10 9 1 0 -7 5 -13 11 -13 5 0
8 4 5 9 -4 5 -2 21 4 35 7 19 6 26 -3 26 -9 0 -9 2 0 8 12 7 12 36 1 47 -11
11 4 101 24 143 17 36 18 45 7 59 -12 14 -12 16 2 11 13 -5 16 2 16 38 0 25 6
50 13 57 10 9 11 9 6 0 -8 -15 3 -65 14 -58 5 3 11 -1 13 -7 3 -8 6 -6 6 5 1
9 -3 17 -9 17 -5 0 -10 7 -10 16 0 8 4 13 8 10 4 -2 6 12 4 32 -4 33 -6 34
-18 17 -14 -18 -14 -18 -15 1 -1 18 0 41 6 104 4 53 6 54 24 20 29 -53 32 -9
5 65 -70 190 -155 480 -153 522 0 16 24 -61 35 -112z m-1641 37 c26 -19 10
-194 -23 -257 -9 -16 -15 -34 -14 -39 2 -4 -5 -20 -15 -35 -27 -40 -103 -191
-96 -191 3 0 -4 -9 -17 -20 -27 -24 -34 -24 -49 -7 -12 15 -21 98 -10 91 7 -4
39 91 39 116 0 6 3 9 8 7 4 -3 7 25 7 61 -1 39 7 86 18 116 10 28 21 59 24 69
3 10 25 29 48 43 24 14 46 31 49 39 6 16 16 19 31 7z m4588 -300 c-8 -5 -2
-12 18 -21 17 -8 29 -20 29 -32 0 -10 5 -19 10 -19 6 0 10 -9 10 -20 0 -10 7
-45 16 -77 19 -70 21 -324 4 -381 -20 -65 -42 -112 -51 -106 -5 3 -12 -2 -15
-10 -3 -9 -12 -16 -19 -16 -24 0 -36 -28 -39 -88 -2 -32 -6 -64 -10 -70 -3 -6
-2 -13 4 -17 6 -4 6 -13 1 -23 -5 -9 -14 -28 -19 -42 -10 -22 -11 -20 -12 25
-3 94 -7 140 -25 280 -13 109 -16 184 -12 338 3 109 9 203 15 210 5 6 12 21
14 32 4 17 7 16 18 -10 l13 -30 7 34 c8 32 24 51 45 51 6 0 5 -4 -2 -8z
m-5496 -1014 c31 -29 31 -96 1 -149 -12 -22 -25 -39 -30 -39 -4 0 -4 -7 -1
-17 4 -11 3 -14 -5 -9 -7 4 -12 2 -12 -4 0 -6 -14 -32 -31 -56 -17 -25 -32
-51 -33 -58 -1 -6 -12 -22 -24 -34 -12 -12 -22 -25 -22 -30 0 -14 -105 -119
-136 -135 -62 -32 -143 12 -160 86 -9 45 4 98 39 149 18 27 35 48 39 48 3 0
19 11 35 24 16 14 41 28 56 31 14 4 31 13 38 21 6 8 23 14 37 14 26 0 102 71
102 96 0 17 59 84 73 84 6 0 21 -10 34 -22z m1505 -14 c9 -3 27 -27 39 -53 19
-40 21 -57 16 -136 -5 -92 -45 -230 -101 -349 -13 -28 -26 -78 -30 -111 -7
-65 -42 -241 -74 -370 -11 -44 -27 -120 -37 -170 -19 -105 -50 -213 -75 -270
-10 -22 -30 -82 -44 -134 -15 -52 -44 -131 -66 -176 -41 -88 -68 -110 -126
-103 -28 3 -29 6 -41 83 -12 76 -8 234 6 245 3 3 16 50 27 105 12 55 31 134
42 175 11 41 23 102 27 135 4 33 13 83 20 110 8 28 16 72 20 98 7 60 32 134
55 167 43 61 53 102 54 220 2 163 16 328 32 378 16 48 64 106 109 130 37 21
106 41 120 36 6 -2 18 -7 27 -10z m1771 -580 c3 -4 49 -6 101 -5 52 1 97 -2
100 -7 3 -5 -2 -19 -11 -31 -12 -18 -24 -22 -57 -20 -90 4 -116 0 -116 -19 0
-21 24 -56 39 -58 6 -1 16 -2 21 -3 6 0 1 -10 -10 -21 -24 -24 -34 -26 -26 -5
3 8 -2 18 -10 23 -8 5 -16 16 -18 25 -1 9 -5 20 -9 23 -4 4 -7 14 -7 23 0 9
-7 29 -15 45 -8 15 -15 30 -15 32 0 6 26 5 33 -2z m317 -20 c78 -19 187 -41
240 -49 25 -3 58 -13 74 -21 36 -17 53 -18 60 -1 3 6 4 3 3 -8 -1 -15 5 -21
26 -23 52 -6 81 -54 57 -92 -9 -13 -11 -13 -20 0 -5 8 -7 25 -4 37 5 18 1 23
-23 29 -15 4 -32 10 -38 14 -30 24 -127 40 -235 39 -111 -1 -180 6 -209 21 -7
4 -19 24 -26 44 -14 41 -24 40 95 10z m-620 -101 c0 -5 -9 -23 -20 -41 -17
-28 -18 -33 -5 -38 21 -8 19 -23 -7 -44 -21 -16 -21 -19 -6 -41 14 -22 14 -26
-1 -39 -8 -8 -35 -16 -59 -16 -25 -1 -47 -5 -51 -10 -3 -5 -43 -9 -89 -10 -54
-1 -87 -6 -95 -14 -10 -10 -8 -12 6 -7 9 4 17 2 17 -3 0 -6 -7 -10 -15 -11
-45 -3 -60 -2 -58 8 5 26 -309 6 -364 -22 -33 -17 -53 -19 -53 -5 0 6 5 10 12
10 9 0 9 3 1 11 -15 15 -33 3 -33 -22 0 -10 -4 -19 -9 -19 -5 0 -17 -3 -27 -7
-15 -5 -16 -2 -11 25 4 20 2 32 -4 32 -6 0 -7 5 -4 10 3 6 15 10 26 10 10 0
19 7 19 15 0 8 -9 15 -20 15 -14 0 -21 9 -25 38 -10 56 -15 62 -12 15 1 -24
-1 -43 -5 -43 -11 0 -10 78 2 85 5 3 7 12 4 19 -3 8 2 16 13 19 14 4 14 5 -4
6 -13 0 -23 6 -23 12 0 7 11 9 33 5 17 -4 41 -7 52 -7 11 0 15 -3 10 -7 -13
-9 -12 -165 0 -172 6 -3 11 7 13 23 5 42 33 35 30 -8 -3 -44 9 -55 30 -28 9
12 29 25 45 28 22 6 27 4 27 -11 1 -17 2 -17 10 -2 11 18 37 25 119 33 30 3
56 7 58 9 1 1 -3 11 -11 21 -10 14 -25 19 -57 18 l-44 -1 49 10 c49 11 50 10
77 -22 26 -31 54 -35 43 -5 -3 7 -1 22 5 32 9 16 10 15 11 -9 0 -28 14 -45 24
-29 9 14 -10 57 -35 82 -18 18 -33 22 -82 21 -34 -1 -79 -3 -102 -6 -32 -4
-29 -2 15 9 30 8 80 17 110 21 47 5 58 3 73 -14 16 -18 27 -19 120 -15 100 5
103 5 103 -16 0 -24 -8 -26 -37 -10 -28 14 -112 1 -105 -17 6 -16 -10 -19 -19
-4 -3 6 -13 10 -21 10 -12 0 -11 -7 7 -32 12 -18 24 -35 26 -38 2 -2 8 2 13
10 8 12 10 12 15 -2 5 -13 15 -15 53 -10 26 4 72 7 102 7 48 0 55 3 57 20 0
11 6 34 13 50 6 17 11 32 12 35 0 3 5 11 10 18 21 25 -8 31 -130 24 -114 -7
-168 -3 -146 10 5 3 74 9 154 12 80 4 147 12 148 17 4 11 22 12 22 2z m875
-79 c39 -8 74 -14 79 -14 5 0 7 -2 4 -5 -3 -3 -47 1 -98 10 -128 20 -144 14
-165 -63 -4 -14 -12 -21 -21 -18 -18 7 -25 -6 -13 -24 6 -10 9 -11 9 -2 0 6 5
12 10 12 6 0 10 -9 10 -20 0 -27 45 -27 60 -1 15 28 12 39 -5 17 -7 -10 -18
-15 -24 -11 -12 7 -15 36 -3 34 21 -4 29 3 25 24 -3 17 2 26 20 34 25 12 25
11 16 -20 -12 -44 -11 -54 4 -35 11 15 19 15 77 4 74 -15 71 -19 -13 -17 -55
2 -58 1 -55 -20 2 -12 10 -23 18 -25 8 -1 44 -10 80 -19 36 -9 83 -18 105 -18
40 -2 55 -11 55 -34 0 -8 -8 -8 -27 2 -16 8 -66 17 -112 20 -47 4 -92 10 -100
15 -13 6 -81 6 -101 0 -3 -1 -21 -1 -40 -1 -26 1 -31 -1 -20 -8 24 -16 -1 -34
-31 -22 -14 5 -52 9 -85 9 -32 0 -66 2 -74 5 -8 3 -24 8 -35 10 -11 3 32 3 95
0 81 -3 111 -2 100 6 -8 5 -32 13 -52 16 -21 4 -40 11 -44 16 -8 14 -24 11
-24 -6 0 -17 -6 -18 -35 -5 -11 5 -14 9 -7 9 6 1 12 6 12 12 0 6 -16 10 -37 8
-21 -1 -50 2 -65 6 -26 7 -27 8 -11 31 19 29 27 30 52 3 13 -14 41 -24 89 -31
69 -11 72 -11 92 13 19 21 20 22 11 2 -8 -16 -7 -22 5 -27 12 -4 15 -2 10 9
-3 8 -2 14 3 12 4 -1 20 13 35 31 26 30 26 32 7 32 -11 0 -23 -4 -26 -10 -10
-16 -23 -12 -21 7 0 10 -9 20 -24 24 -23 6 -22 7 10 9 41 3 37 3 75 -2 19 -2
30 1 30 10 0 7 7 17 15 22 15 10 36 8 155 -16z m321 -149 l0 -166 -26 3 c-20
2 -26 10 -30 37 -6 40 -25 52 -33 20 -5 -18 -8 -19 -20 -8 -11 10 -12 18 -5
27 8 8 6 12 -5 12 -10 0 -17 16 -22 56 -4 31 -4 58 -1 61 12 12 36 -8 36 -30
0 -20 5 -23 40 -24 22 -1 40 3 40 8 0 6 5 7 10 4 6 -3 10 1 10 9 0 9 -4 16 -9
16 -5 0 -8 27 -7 60 0 33 5 60 9 60 5 0 5 5 2 10 -3 6 -2 10 2 10 5 0 9 -74 9
-165z m3354 -254 c0 -4 26 -34 58 -67 71 -73 112 -154 112 -222 0 -32 -5 -54
-15 -62 -8 -7 -15 -8 -15 -4 0 5 -13 15 -30 22 -16 8 -30 18 -30 24 0 5 -13
29 -30 53 -16 24 -30 50 -30 58 0 8 -7 28 -15 43 -8 16 -15 39 -15 51 0 12 -4
24 -9 27 -7 5 -8 20 -3 79 2 17 22 15 22 -2z m-4747 -1 c11 0 22 -12 28 -30
13 -37 32 -38 64 -5 16 18 25 22 30 14 4 -6 2 -15 -5 -19 -12 -7 -14 -35 -8
-100 3 -41 -3 -90 -12 -90 -5 0 -10 8 -11 18 0 13 -3 12 -11 -6 -9 -18 -17
-22 -37 -17 l-26 5 25 -21 c27 -23 37 -68 17 -74 -7 -2 -27 -6 -45 -9 l-32 -6
16 26 c10 14 23 23 30 20 8 -3 11 0 8 8 -7 18 -89 -4 -107 -28 -13 -18 -14
-18 -20 5 -4 16 -2 28 8 35 8 6 12 14 8 17 -6 7 11 11 35 8 6 -1 17 11 22 26
6 15 16 39 24 53 24 44 24 83 -1 95 -51 26 -114 -12 -83 -50 16 -19 4 -35 -26
-35 -15 0 -24 6 -24 15 0 12 -4 14 -20 5 -15 -8 -21 -6 -29 9 -13 23 7 43 46
47 29 3 63 31 63 51 0 18 17 16 24 -3 4 -9 9 -14 12 -11 3 3 -3 18 -13 33
l-18 28 25 -7 c14 -4 33 -7 43 -7z m627 -171 c3 -13 12 -24 20 -24 9 0 14 -8
12 -21 -4 -28 25 -40 33 -13 10 30 62 52 111 46 23 -2 46 -1 51 4 4 4 24 10
43 13 33 6 37 4 63 -38 31 -50 34 -66 10 -66 -9 0 -43 -9 -76 -21 -33 -12 -71
-19 -85 -16 -65 13 -88 20 -100 30 -8 6 -26 11 -40 12 -19 0 -26 5 -24 16 1 9
-9 21 -24 28 -18 8 -24 17 -20 28 6 14 -1 15 -56 9 -52 -6 -60 -5 -50 7 7 7 8
18 4 22 -4 5 -2 5 4 2 6 -4 31 -3 55 2 57 11 62 9 69 -20z m-257 -63 c3 3 3
-3 0 -15 -6 -23 -27 -28 -39 -10 -4 8 -9 7 -15 -2 -5 -8 -1 -18 12 -27 26 -18
14 -35 -20 -27 -21 5 -24 4 -13 -6 19 -20 14 -32 -10 -26 -14 4 -29 0 -40 -10
-14 -13 -21 -14 -30 -5 -9 9 -8 15 6 25 17 13 16 16 -21 55 -22 23 -44 42 -49
42 -5 0 0 -8 11 -16 19 -16 19 -16 -5 -8 -14 4 -33 8 -42 8 -38 1 4 21 45 22
23 0 48 3 56 5 10 3 17 -6 20 -25 3 -17 9 -29 14 -28 4 1 14 2 22 2 9 0 15 9
15 25 0 32 37 50 61 29 9 -8 18 -11 22 -8z m649 -63 c11 -10 18 -30 18 -55 0
-36 8 -47 24 -31 4 4 17 8 29 8 13 0 22 6 22 15 1 24 24 59 46 71 26 14 36 5
16 -15 -10 -11 -13 -28 -10 -60 3 -25 2 -53 -2 -63 -5 -10 -7 -21 -7 -25 1 -5
-2 -8 -8 -8 -5 0 -10 5 -10 10 0 6 -9 10 -21 10 -13 0 -23 8 -26 21 -4 15 -12
19 -32 17 -23 -3 -26 -8 -29 -44 -2 -27 -11 -48 -24 -60 -21 -19 -21 -19 -15
8 4 14 10 33 13 42 5 12 1 15 -15 13 -11 -2 -24 -6 -27 -10 -11 -11 -44 -8
-44 3 0 6 -24 10 -54 10 -54 0 -73 -13 -67 -47 1 -7 -7 -18 -18 -25 -18 -11
-18 -14 -5 -39 12 -25 12 -27 -4 -24 -13 2 -17 11 -16 39 2 61 -19 36 -39 -47
-18 -70 -18 -78 -3 -92 22 -22 20 -27 -6 -20 -101 28 -169 84 -124 101 13 5
107 151 119 185 3 9 1 21 -5 27 -8 8 -8 15 0 25 9 10 9 16 0 25 -19 19 -2 25
33 13 35 -12 132 -15 142 -4 9 8 97 40 116 42 8 0 23 -6 33 -16z m-1250 -113
c3 -17 -1 -38 -7 -48 -12 -17 -12 -112 0 -131 3 -5 -2 -17 -11 -25 -14 -15
-14 -16 3 -17 10 0 13 -3 5 -6 -6 -2 -10 -9 -7 -13 3 -5 0 -12 -6 -16 -8 -4
-9 -3 -5 4 4 7 3 12 -2 12 -9 0 -23 29 -26 55 -4 24 -26 50 -33 39 -5 -7 -16
-8 -30 -3 -30 11 -34 69 -5 69 24 0 62 28 62 45 0 16 39 65 51 65 4 0 9 -14
11 -30z m62 -122 c17 -56 34 -82 22 -35 -7 30 29 51 56 33 23 -14 61 25 55 57
-3 21 -4 21 -11 2 -4 -11 -10 -26 -12 -34 -3 -8 -6 -12 -9 -9 -2 2 1 21 7 41
l11 37 23 -21 c19 -18 26 -20 39 -9 12 10 16 9 22 -5 4 -12 0 -23 -12 -31 -10
-8 -16 -17 -12 -21 4 -3 16 2 28 13 21 19 21 19 18 -6 -2 -13 -14 -29 -25 -35
-12 -6 -28 -15 -35 -21 -8 -6 -23 -11 -34 -11 -11 -1 -33 -7 -50 -14 -16 -7
-34 -13 -40 -13 -17 -2 -11 -41 8 -44 10 -2 17 3 17 12 0 10 9 16 21 16 18 0
19 -2 9 -15 -12 -15 -4 -20 23 -16 9 1 9 -26 -1 -32 -4 -3 -31 0 -60 5 -39 8
-59 19 -78 41 -14 16 -23 36 -20 43 3 8 -2 35 -10 61 -12 38 -13 54 -4 77 10
28 11 28 24 10 7 -10 20 -45 30 -76z m-160 -84 c16 -25 56 -68 90 -95 61 -49
112 -70 175 -73 45 -1 53 -24 11 -33 -27 -5 -29 -8 -15 -15 9 -6 32 -7 51 -4
19 4 34 3 34 -2 0 -12 -123 -26 -151 -17 -17 6 -18 9 -8 16 7 4 11 11 8 14
-10 9 -260 14 -317 6 -78 -11 -80 16 -4 50 28 12 32 18 27 39 l-6 25 21 -23
22 -24 12 23 c14 28 36 36 36 13 0 -14 3 -15 12 -6 9 9 7 17 -9 34 -11 13 -26
33 -32 46 -7 12 -17 20 -22 16 -6 -3 -3 -12 8 -21 10 -8 12 -12 6 -8 -7 3 -13
2 -13 -4 0 -6 -7 -8 -17 -4 -12 5 -15 2 -11 -13 3 -13 -3 -26 -18 -37 l-23
-17 15 36 c9 21 22 47 31 60 8 13 16 31 18 41 2 10 4 19 4 21 1 1 9 2 19 2 9
-1 30 -21 46 -46z m849 -27 c-4 -6 0 -8 11 -4 11 5 30 -3 54 -23 20 -16 63
-40 94 -54 31 -14 60 -31 65 -39 5 -9 34 -16 81 -20 90 -7 108 5 105 73 0 25
-3 51 -5 59 -1 7 2 16 9 18 7 2 15 -7 19 -21 3 -14 10 -26 15 -26 5 0 9 -9 9
-19 0 -11 5 -23 10 -26 6 -3 10 4 10 17 0 13 8 32 16 43 15 19 16 18 12 -20
-3 -27 1 -50 14 -70 24 -40 23 -45 -13 -45 -16 0 -28 -4 -25 -9 4 -5 -3 -7
-14 -4 -11 3 -20 1 -20 -5 0 -5 -18 -9 -40 -9 -22 0 -40 4 -40 9 0 4 -20 6
-44 3 -24 -3 -64 -1 -88 4 -27 6 -47 6 -52 0 -14 -13 -53 -11 -62 2 -4 7 -22
9 -47 6 -51 -7 -87 6 -87 33 0 11 7 23 16 27 21 8 -1 23 -33 23 -16 0 -23 6
-23 20 0 21 15 27 25 9 4 -6 13 -8 20 -5 7 2 17 0 23 -6 11 -11 35 -1 27 11
-2 5 -16 9 -30 9 -44 0 -69 34 -43 60 14 14 42 -4 31 -21z m-243 -137 c9 -5
19 -5 26 1 8 6 14 7 18 0 4 -5 39 -8 81 -6 41 2 75 0 75 -5 0 -5 20 -28 43
-52 40 -39 65 -78 51 -78 -14 0 -51 25 -70 48 -12 13 -26 22 -32 18 -5 -3 -15
1 -22 9 -18 21 -165 21 -187 0 -8 -8 -18 -13 -23 -10 -4 3 -24 -11 -43 -30
-35 -35 -67 -46 -67 -22 0 13 117 137 129 137 3 0 13 -4 21 -10z m-2059 -50
c25 -14 49 -62 49 -99 0 -35 -34 -97 -62 -112 -28 -15 -60 9 -87 65 -19 43
-20 49 -7 81 8 19 30 44 48 55 39 23 34 23 59 10z m1263 -15 c3 -9 0 -15 -9
-15 -18 0 -19 -5 -4 -29 8 -11 9 -31 4 -57 -5 -21 -7 -45 -6 -51 1 -7 -6 -13
-15 -13 -10 0 -14 -5 -10 -15 3 -8 1 -15 -4 -15 -6 0 -10 19 -10 41 0 33 -3
39 -13 31 -35 -29 -189 8 -200 48 -5 19 15 42 45 53 10 3 56 7 102 8 62 1 86
5 90 15 7 18 22 18 30 -1z" />
        <path d="M6030 2915 c0 -3 15 -31 32 -63 18 -31 32 -58 30 -60 -2 -2 19 -40
48 -82 31 -46 44 -73 29 -65 -9 6 -11 3 -6 -8 8 -22 127 -197 133 -197 3 0 2
5 -2 11 -4 8 0 9 15 4 25 -8 27 0 6 21 -8 9 -15 20 -15 25 0 5 7 9 15 9 13 0
17 14 14 48 0 4 -8 6 -17 4 -14 -3 -13 -1 3 12 16 12 17 15 4 16 -8 0 -25 11
-37 25 -18 21 -19 25 -6 25 11 0 1 15 -27 42 -24 23 -51 41 -59 39 -10 -2 -7
5 8 22 17 18 20 26 10 29 -7 3 -19 -2 -26 -11 -12 -14 -13 -13 -9 6 4 20 1 22
-24 19 -33 -4 -46 9 -80 77 -21 44 -39 68 -39 52z" />
        <path d="M6286 575 c-4 -14 -1 -35 5 -47 7 -12 13 -38 14 -57 1 -20 6 -45 10
-55 6 -14 5 -17 -3 -12 -7 4 -12 1 -12 -8 0 -22 -51 -59 -64 -46 -7 7 -3 19
12 40 l23 30 -22 30 c-19 24 -25 27 -37 17 -8 -6 -33 -19 -56 -27 -33 -13 -40
-20 -38 -37 4 -28 -28 -46 -59 -35 -13 5 -23 18 -24 30 -1 18 4 22 28 22 27 0
29 2 24 29 -4 20 -1 33 9 42 14 11 13 14 -6 21 -12 4 -27 5 -32 1 -7 -3 -8 -1
-4 5 4 7 -4 14 -20 18 -19 5 -22 9 -12 15 9 6 7 9 -10 9 -12 0 -25 6 -28 14
-8 22 -29 9 -60 -35 -27 -40 -28 -40 -78 -35 -42 5 -46 4 -24 -5 28 -11 43
-35 28 -44 -18 -11 -10 -34 12 -37 30 -4 35 -34 9 -48 -18 -9 -25 -7 -47 15
-30 30 -34 31 -34 6 0 -32 -19 -34 -60 -7 -30 20 -37 30 -33 48 5 23 5 23 -16
-2 l-20 -25 24 -31 c20 -26 21 -31 7 -31 -9 0 -21 3 -27 7 -5 4 -26 13 -46 19
-29 9 -36 16 -32 31 8 30 -10 24 -29 -9 -28 -49 -8 -104 65 -186 20 -22 37
-42 37 -45 0 -3 -11 -6 -25 -6 -14 -1 -25 3 -25 8 0 5 -22 30 -50 55 -27 25
-50 52 -50 61 -1 40 -16 46 -51 21 -50 -35 -65 -35 -39 1 25 35 25 36 -23 11
-33 -17 -42 -18 -70 -7 -18 8 -61 14 -96 15 -35 1 -69 5 -74 8 -6 4 -59 8
-119 10 l-108 4 0 -33 c1 -61 27 -156 58 -211 28 -49 29 -54 11 -50 -11 3 -18
11 -16 17 2 6 -10 40 -29 76 -18 36 -38 91 -45 123 -9 42 -17 57 -29 57 -15 0
-19 -14 -24 -92 -4 -52 -2 -120 4 -153 5 -33 10 -63 10 -67 0 -5 108 -8 240
-8 205 0 239 2 234 14 -6 16 39 87 79 124 l25 24 17 -26 c10 -14 22 -26 29
-26 20 -1 60 -40 50 -50 -6 -6 -24 2 -47 21 -37 31 -38 31 -59 13 -11 -11 -34
-36 -50 -56 l-30 -38 191 0 c176 0 191 1 191 18 0 10 -7 28 -16 40 -9 13 -14
25 -11 28 9 10 74 -37 85 -61 l12 -25 155 0 155 0 -6 25 c-4 14 -25 44 -47 67
-34 34 -41 38 -49 24 -12 -22 -84 -22 -92 0 -4 11 -10 13 -19 6 -6 -5 -26 -13
-44 -16 -26 -6 -35 -3 -57 21 -29 31 -34 58 -11 67 8 3 15 11 15 19 0 7 5 18
12 25 9 9 17 7 35 -10 13 -12 23 -26 23 -32 1 -20 49 -46 90 -50 22 -2 39 -1
36 2 -3 2 22 32 55 65 36 37 57 67 54 75 -4 10 0 12 11 8 10 -4 30 4 51 20
l35 27 -23 -42 c-13 -23 -39 -57 -56 -76 -35 -36 -43 -61 -17 -51 9 3 18 6 20
6 2 0 4 7 4 15 0 8 7 15 15 15 11 0 12 -6 6 -22 -15 -41 -21 -107 -11 -113 5
-3 20 6 32 21 13 15 56 64 96 108 105 116 106 116 92 168 -7 24 -16 52 -22 63
-5 11 -10 30 -11 43 0 12 -5 22 -9 22 -4 0 -7 3 -6 8 1 4 -4 19 -10 34 -6 15
-9 35 -6 43 4 8 2 15 -4 15 -5 0 -13 -11 -16 -25z" />
        <path d="M6807 344 c-1 -1 -38 -5 -82 -8 -44 -3 -91 -8 -105 -12 -35 -8 -83
-5 -94 6 -17 17 -29 11 -15 -7 12 -15 12 -16 -6 -9 -10 4 -39 10 -62 13 -37 5
-43 3 -37 -10 8 -21 -12 -57 -49 -88 -27 -24 -31 -33 -34 -95 -3 -63 -20 -124
-33 -124 -3 0 -13 9 -23 20 -22 27 -34 25 -39 -5 l-5 -25 413 0 c251 0 415 4
419 10 3 5 11 48 17 95 8 68 8 102 -2 155 -17 92 -35 97 -49 15 -6 -35 -18
-79 -26 -98 -8 -19 -12 -37 -9 -39 9 -10 -19 -58 -43 -73 -19 -13 -23 -13 -23
-1 0 7 7 19 15 26 25 21 56 121 58 190 l2 65 -93 0 c-51 0 -94 -1 -95 -1z" />
    </g>
</svg>
