<?xml version="1.0" encoding="utf-8"?>
<!-- Generator: Adobe Illustrator 26.5.0, SVG Export Plug-In . SVG Version: 6.00 Build 0)  -->
<svg version="1.1" id="레이어_1" xmlns="http://www.w3.org/2000/svg" xmlns:xlink="http://www.w3.org/1999/xlink" x="0px"
	 y="0px" viewBox="0 0 595.28 841.89" style="enable-background:new 0 0 595.28 841.89;" xml:space="preserve">
<style type="text/css">
	.st0{fill:#FFFFFF;}
</style>
<g>
	<path class="st0" d="M288.48,440.32l-46.83-33.83l-46.83,33.83l-15-16.07l50.35-36.18v-13.92h-57.39v-21.43h104.06v-19.65h-94.88
		v-21.42H299.8v41.07h10.71v21.43h-57.38v13.92l50.34,36.18L288.48,440.32z"/>
	<polygon class="st0" points="446.7,352.74 446.7,311.31 423.75,311.31 423.75,436.65 446.7,436.65 446.7,374.16 460.47,374.16 
		460.47,352.74 	"/>
	<path class="st0" d="M477.35,402.37c-2.04-12.75-2.04-49.81,0-62.56c1.02-6.63,3.31-12.14,6.89-16.53
		c3.57-4.39,7.78-7.68,12.62-9.87c4.84-2.19,10.02-3.29,15.53-3.29c5.51,0,10.68,1.1,15.53,3.29c4.85,2.19,9.08,5.49,12.7,9.87
		c3.62,4.39,5.99,9.9,7.11,16.53c2.04,12.65,2.04,49.81,0,62.56c-1.13,6.63-3.5,12.14-7.11,16.52c-3.62,4.39-7.86,7.68-12.7,9.87
		c-4.85,2.19-10.02,3.29-15.53,3.29c-5.51,0-10.69-1.1-15.53-3.29c-4.85-2.19-9.06-5.49-12.62-9.87
		C480.66,414.51,478.37,409,477.35,402.37z M525.09,339.81c-0.51-2.55-2.01-4.49-4.51-5.82c-2.5-1.33-5.18-1.99-8.04-1.99
		c-2.86,0-5.54,0.66-8.04,1.99c-2.5,1.33-4,3.27-4.51,5.82c-0.61,3.06-1.53,13.09-1.89,17.32c-0.36,4.24-0.36,23.79,0,28.03
		c0.36,4.24,1.28,14.2,1.89,17.36c0.51,2.66,2.01,4.62,4.51,5.89c2.5,1.28,5.18,1.91,8.04,1.91c2.86,0,5.53-0.63,8.04-1.91
		c2.5-1.27,4-3.24,4.51-5.89c0.92-4.69,1.58-10.53,1.99-17.52c0.41-6.99,0.41-20.68,0-27.67
		C526.68,350.34,526.01,344.5,525.09,339.81z M570.65,436.65V311.31h22.95v125.33H570.65z"/>
	<path class="st0" d="M402.17,431.74h-74.84V311.39h22.84v29.41l52.01,26.36V431.74z M350.16,408.9h29.17v-27.71l-29.17-14.79V408.9
		z"/>
	<polygon class="st0" points="377.65,311.43 377.65,337.54 391.44,337.54 391.44,355.52 403.76,337.54 403.76,311.43 	"/>
</g>
<path class="st0" d="M0.44,320.08v193.04c0,5.43,4.34,9.81,9.73,9.94h122.49c5.32-0.12,9.59-4.4,9.71-9.71v-70.28L82.7,368.79
	l-24.38,19.63l52.77,65.69v37.65H31.74V341.42h79.35v33.28l31.29,38.85v-93.7c-0.12-5.39-4.51-9.73-9.94-9.73H10.4
	C4.9,310.12,0.44,314.58,0.44,320.08z"/>
<g>
	<path class="st0" d="M198.14,512.81l-13.48-35.25v35.25h-10.04v-55.54h10.95l17.13,44.59l17.06-44.59h10.95v55.54h-10.04v-35.25
		l-13.48,35.25H198.14z"/>
	<path class="st0" d="M272.8,513.79c-8.78,0-14.39-4.56-14.39-12.57c0-8.01,5.55-12.64,14.39-12.64c5.06,0,9.41,1.9,10.81,5.41
		v-6.81c0-4.7-2.25-7.16-7.09-7.16c-4.07,0-6.39,1.76-6.81,5.06h-9.83c0.63-7.72,6.18-12.92,16.64-12.92
		c11.38,0,16.85,6.04,16.85,15.03v20.08c0,2.11,0.35,4.21,0.91,5.55h-9.97c-0.42-0.98-0.63-2.81-0.7-4.42
		C282.42,511.48,278.55,513.79,272.8,513.79z M283.61,501.23c0-3.72-2.6-5.55-7.72-5.55c-5.13,0-7.72,1.83-7.72,5.55
		c0,3.65,2.6,5.48,7.72,5.48C280.94,506.7,283.61,504.88,283.61,501.23z"/>
	<path class="st0" d="M356.15,512.81h-9.76v-24.86c0-5.34-2.18-7.86-6.25-7.86c-5.06,0-8.64,3.65-8.64,10.53v22.19h-9.76v-39.67
		h9.76v6.74c1.47-4.63,5.55-7.72,11.23-7.72c8.64,0,13.41,5.55,13.41,15.66V512.81z"/>
	<path class="st0" d="M397.45,513.79c-8.78,0-14.39-4.56-14.39-12.57c0-8.01,5.55-12.64,14.39-12.64c5.06,0,9.41,1.9,10.81,5.41
		v-6.81c0-4.7-2.25-7.16-7.09-7.16c-4.07,0-6.39,1.76-6.81,5.06h-9.83c0.63-7.72,6.18-12.92,16.64-12.92
		c11.38,0,16.85,6.04,16.85,15.03v20.08c0,2.11,0.35,4.21,0.91,5.55h-9.97c-0.42-0.98-0.63-2.81-0.7-4.42
		C407.07,511.48,403.21,513.79,397.45,513.79z M408.26,501.23c0-3.72-2.6-5.55-7.72-5.55c-5.13,0-7.72,1.83-7.72,5.55
		c0,3.65,2.6,5.48,7.72,5.48C405.59,506.7,408.26,504.88,408.26,501.23z"/>
	<path class="st0" d="M481.3,514.15c0,9.55-5.06,17.06-17.27,17.06c-9.83,0-15.8-4.63-16.85-12.36h9.9
		c0.42,3.37,2.95,5.06,7.02,5.06c5.13,0,7.44-3.09,7.44-8.99v-8.22c-1.4,4.28-5.41,7.09-10.88,7.09c-9.41,0-15.45-6.46-15.45-20.85
		c0-14.32,6.04-20.78,15.45-20.78c5.48,0,9.48,2.81,10.88,7.09v-6.11h9.76V514.15z M463.25,480.09c-6.32,0-8.29,4.7-8.29,12.85
		c0,8.22,1.97,12.99,8.29,12.99s8.29-4.77,8.29-12.99C471.54,484.79,469.57,480.09,463.25,480.09z"/>
	<path class="st0" d="M518.31,495.82c0.21,6.6,2.81,10.25,8.22,10.25c3.93,0,6.67-1.9,7.3-5.34h9.9
		c-1.33,8.36-7.58,13.06-17.2,13.06c-12.08,0-18.05-7.65-18.05-20.85c0-13.06,5.97-20.78,18.05-20.78
		c12.15,0,18.05,7.72,18.05,20.78v2.88H518.31z M518.45,489.08h16.22c-0.42-5.83-2.95-9.2-8.15-9.2
		C521.26,479.88,518.73,483.25,518.45,489.08z"/>
	<path class="st0" d="M581.51,492.45v20.36h-9.76v-39.67h9.76v7.16c1.33-5.41,4.56-8.15,10.6-8.15c1.19,0,2.32,0.14,3.16,0.35
		l-0.14,7.94c-0.63-0.07-1.97-0.14-3.37-0.14C585.23,480.3,581.51,484.44,581.51,492.45z"/>
</g>
</svg>
