<?xml version="1.0" encoding="utf-8"?>
<!-- Generator: Adobe Illustrator 26.5.0, SVG Export Plug-In . SVG Version: 6.00 Build 0)  -->
<svg version="1.1" id="레이어_1" xmlns="http://www.w3.org/2000/svg" xmlns:xlink="http://www.w3.org/1999/xlink" x="0px"
	 y="0px" viewBox="0 0 841.89 595.28" style="enable-background:new 0 0 841.89 595.28;" xml:space="preserve">
<style type="text/css">
	.st0{fill:#727171;}
	.st1{fill:#E60013;}
</style>
<g>
	<g>
		<path class="st0" d="M288.13,389.15h15.14c8.29,0,12.03,7.08,12.03,11.57c0,0.12,0.23,1.5-0.86,3.05
			c-0.52,0.81-1.33,1.21-2.36,1.21c-0.46,0-0.92-0.06-1.38-0.23c-2.02-0.64-2.71-2.07-2.71-3.34c0-0.12,0-0.23,0-0.34
			c0-0.12,0-0.23,0-0.35c0-2.01-1.03-4.55-4.72-4.55h-11.46v26.25h14.33c2.07,0,3.51-1.04,4.2-2.42c0.69-1.32,0.57-2.19,0.57-2.3
			c0-2.07-1.67-4.43-4.78-4.43H299c-4.49,0-4.49-6.79,0-6.79h5.53c9.9,0,13.7,5.81,13.7,10.93c0,0.17-0.06,0.81-0.11,1.9
			c-0.06,1.09-0.52,2.47-1.5,4.14c-1.96,3.45-5.64,5.99-10.48,5.99h-18.02c-1.9,0-3.39-1.55-3.39-3.39v-33.5
			C284.73,390.64,286.23,389.15,288.13,389.15z"/>
		<path class="st0" d="M356.12,403.82c0-2.3,1.78-3.51,3.57-3.51c1.79,0,3.51,1.15,3.51,3.51v12.37c0,4.49,3.34,6.68,6.79,6.68
			s6.91-2.3,6.91-6.68v-12.37c0-2.3,1.78-3.51,3.57-3.51c1.78,0,3.51,1.15,3.51,3.51V425c0,7.54-5.64,15.6-15.54,15.6
			c-2.47,0-5.18-0.46-8.17-1.61c-2.01-0.75-2.24-2.13-2.24-3.11c0-0.57,0.12-1.72,1.33-2.88c0.57-0.57,1.27-0.86,2.13-0.86
			c0.52,0,1.09,0.12,1.61,0.4c1.67,0.86,3.28,1.21,4.84,1.21c3.74,0,6.68-2.19,8.06-4.89c-1.84,0.69-3.74,1.03-5.64,1.03
			c-7.37,0-14.22-5.01-14.22-13.7V403.82z"/>
		<path class="st0" d="M437.47,399.45c1.55,0,2.94,0.17,4.49,0.63c4.15,1.21,7.02,3.8,8.81,6.68c1.79,2.88,2.3,5.64,2.3,7.48
			c0,0.57,0,2.3-0.98,3.28c-0.46,0.52-0.98,0.81-1.55,0.81c-0.29,0-0.58-0.06-0.92-0.17c-1.9-0.57-3.86-0.86-5.87-0.86
			c-1.61,0-3.28,0.17-4.84,0.58c-0.29,0.06-0.57,0.12-0.86,0.12c-1.27,0-2.53-1.15-2.77-2.13c-0.06-0.52-0.11-0.86-0.11-1.09
			c0-1.04,0.4-2.59,2.47-2.99c2.01-0.35,4.03-0.57,6.04-0.57c0.46,0,0.98,0.06,1.5,0.06c-1.38-3.22-4.49-4.84-7.66-4.84
			c-3.16,0-6.1,1.55-7.65,4.61c-0.63,1.21-0.92,2.42-0.92,3.57c0,0.52-0.12,2.36,1.5,4.61c1.55,2.3,4.14,3.74,7.08,3.74
			c1.38,0,2.71-0.35,3.97-0.98c0.52-0.29,1.09-0.4,1.61-0.4c1.61,0,2.99,1.27,3.28,2.36c0.17,0.52,0.29,0.92,0.29,1.27
			c0,0.75-0.12,2.01-1.96,2.94c-2.36,1.15-4.72,1.67-7.2,1.67c-8.06,0-15.54-6.22-15.54-15.14
			C421.98,405.95,429.18,399.45,437.47,399.45z"/>
		<path class="st0" d="M522.1,417.46c0-2.76,1.03-5.75,3.97-7.88c0.98-0.75,1.1-0.69,1.1-0.81c0-0.12,0-0.23-0.81-1.15
			c-0.4-0.4-0.92-1.21-1.5-2.3c-0.69-1.27-1.03-2.59-1.03-3.91c0-0.63-0.12-2.76,1.72-5.52c1.84-2.77,5.01-4.78,8.63-4.78
			c4.2,0,7.95,2.42,9.73,6.28c0.17,0.46,0.23,0.86,0.23,1.21c0,0.34,0,1.03-0.63,1.73c-0.63,0.69-1.67,1.09-2.65,1.09
			c-1.21,0-2.3-0.57-2.94-1.73c-0.75-1.61-2.07-2.24-3.45-2.24c-2.48,0-4.14,1.9-4.14,3.57c0,0.4-0.17,1.38,1.44,3.22
			c1.9,2.24,5.35,4.84,9.26,7.89c2.07-4.43,4.66-6.28,6.73-6.28c1.38,0,2.3,0.75,2.82,2.19c0.17,0.46,0.23,0.86,0.23,1.21
			c0,0.58-0.35,1.5-1.67,2.53c-1.21,0.92-2.53,2.3-2.65,5.24c2.07,2.01,3.45,3.74,4.78,5.58c0.4,0.58,0.63,1.15,0.63,1.73
			c0,0.06,0.12,0.75-0.52,1.67c-0.69,0.92-1.73,1.55-2.88,1.55c-0.86,0-1.79-0.4-2.48-1.38c-0.52-0.69-1.03-1.44-1.67-2.13
			c-2.24,3.46-6.16,5.24-10.07,5.24c-3.16,0-6.16-1.15-8.63-3.51c-2.13-2.07-3.51-5.01-3.57-8
			C522.1,417.64,522.1,417.58,522.1,417.46z M528.49,417.4c0,0.63,0.17,1.33,0.52,2.07c1.09,2.36,3.16,3.51,5.29,3.51
			c2.24,0,4.55-1.21,5.47-3.68c-3.45-2.94-6.56-5.24-7.48-6.1c-2.13,1.04-3.68,2.13-3.8,4.03
			C528.49,417.29,528.49,417.35,528.49,417.4z"/>
		<path class="st0" d="M625.5,389.15h15.14c8.29,0,12.03,7.08,12.03,11.57c0,0.12,0.23,1.5-0.86,3.05
			c-0.52,0.81-1.33,1.21-2.36,1.21c-0.46,0-0.92-0.06-1.38-0.23c-2.02-0.64-2.71-2.07-2.71-3.34c0-0.12,0-0.23,0-0.34
			c0-0.12,0-0.23,0-0.35c0-2.01-1.03-4.55-4.72-4.55h-11.46v26.25h14.33c2.07,0,3.51-1.04,4.2-2.42c0.69-1.32,0.57-2.19,0.57-2.3
			c0-2.07-1.67-4.43-4.78-4.43h-7.14c-4.49,0-4.49-6.79,0-6.79h5.52c9.9,0,13.7,5.81,13.7,10.93c0,0.17-0.06,0.81-0.11,1.9
			c-0.06,1.09-0.52,2.47-1.5,4.14c-1.96,3.45-5.64,5.99-10.48,5.99H625.5c-1.9,0-3.39-1.55-3.39-3.39v-33.5
			C622.11,390.64,623.6,389.15,625.5,389.15z"/>
		<path class="st0" d="M697.06,400.31c1.79,0,3.51,1.15,3.51,3.51v12.37c0,4.43,3.34,6.73,6.79,6.73s6.91-2.3,6.91-6.73v-12.37
			c0-2.36,1.78-3.51,3.57-3.51c1.78,0,3.51,1.15,3.51,3.51v12.37c0,9.26-6.68,13.64-13.53,13.64c-7.08,0-14.33-4.66-14.33-13.64
			v-12.37C693.5,401.52,695.28,400.31,697.06,400.31z"/>
		<path class="st0" d="M760.51,403.82c0-2.3,1.78-3.51,3.57-3.51c1.79,0,3.51,1.15,3.51,3.51v12.37c0,4.49,3.34,6.68,6.79,6.68
			c3.45,0,6.91-2.3,6.91-6.68v-12.37c0-2.3,1.78-3.51,3.57-3.51c1.78,0,3.51,1.15,3.51,3.51V425c0,7.54-5.64,15.6-15.54,15.6
			c-2.47,0-5.18-0.46-8.17-1.61c-2.01-0.75-2.24-2.13-2.24-3.11c0-0.57,0.12-1.72,1.32-2.88c0.58-0.57,1.27-0.86,2.13-0.86
			c0.52,0,1.09,0.12,1.61,0.4c1.67,0.86,3.28,1.21,4.84,1.21c3.74,0,6.68-2.19,8.06-4.89c-1.84,0.69-3.74,1.03-5.64,1.03
			c-7.37,0-14.22-5.01-14.22-13.7V403.82z"/>
	</g>
	<g>
		<path d="M399.1,352.36l-67.96-49.09l-67.95,49.09l-21.76-23.32l73.06-52.5v-20.2h-83.28v-31.09h151.01v-28.52H244.53v-31.09
			h170.99v59.61h15.54v31.09H347.8v20.2l73.06,52.5L399.1,352.36z"/>
		<polygon points="628.71,225.26 628.71,165.15 595.4,165.15 595.4,347.03 628.71,347.03 628.71,256.35 648.69,256.35 
			648.69,225.26 		"/>
		<path d="M673.19,297.29c-2.97-18.5-2.97-72.28,0-90.79c1.48-9.62,4.81-17.62,9.99-23.98c5.18-6.37,11.28-11.14,18.32-14.32
			c7.03-3.18,14.54-4.78,22.54-4.78c7.99,0,15.5,1.59,22.53,4.78c7.03,3.18,13.18,7.96,18.43,14.32
			c5.25,6.37,8.69,14.36,10.33,23.98c2.96,18.36,2.96,72.28,0,90.79c-1.63,9.62-5.08,17.62-10.33,23.98
			c-5.26,6.37-11.4,11.14-18.43,14.33c-7.03,3.18-14.54,4.77-22.53,4.77c-8,0-15.52-1.59-22.54-4.77
			c-7.04-3.19-13.14-7.96-18.32-14.33C678,314.9,674.67,306.91,673.19,297.29z M742.47,206.5c-0.74-3.7-2.92-6.51-6.54-8.44
			c-3.63-1.92-7.52-2.89-11.66-2.89c-4.15,0-8.03,0.96-11.66,2.89c-3.63,1.93-5.81,4.74-6.55,8.44c-0.88,4.44-2.22,19-2.74,25.14
			c-0.53,6.15-0.53,34.53,0,40.67c0.52,6.15,1.85,20.61,2.74,25.19c0.74,3.86,2.92,6.7,6.55,8.55c3.63,1.86,7.51,2.78,11.66,2.78
			c4.14,0,8.03-0.92,11.66-2.78c3.62-1.85,5.8-4.7,6.54-8.55c1.33-6.8,2.3-15.28,2.89-25.43c0.59-10.14,0.59-30.02,0-40.15
			C744.77,221.79,743.8,213.31,742.47,206.5z M808.58,347.03V165.15h33.31v181.88H808.58z"/>
		<path d="M564.09,339.9H455.47V165.25h33.14v42.69l75.47,38.25V339.9z M488.61,306.76h42.33v-40.21l-42.33-21.46V306.76z"/>
		<polygon class="st1" points="528.5,165.31 528.5,203.2 548.52,203.2 548.52,229.29 566.39,203.2 566.39,165.31 		"/>
	</g>
	<path class="st1" d="M0,168.04v259.02c0,7.28,5.82,13.17,13.06,13.34h164.36c7.13-0.16,12.87-5.9,13.03-13.03v-94.29l-80.09-99.68
		l-32.71,26.35l70.81,88.14v50.52H42V196.67h106.48v44.65l41.98,52.13V167.73c-0.17-7.23-6.06-13.06-13.33-13.06H13.36
		C5.98,154.68,0,160.66,0,168.04z"/>
</g>
</svg>
